<?xml version="1.0" encoding="utf-8"?>
<!-- Generator: Adobe Illustrator 17.1.0, SVG Export Plug-In . SVG Version: 6.00 Build 0)  -->
<!DOCTYPE svg PUBLIC "-//W3C//DTD SVG 1.1//EN" "http://www.w3.org/Graphics/SVG/1.1/DTD/svg11.dtd">
<svg version="1.1" id="圖層_1" xmlns="http://www.w3.org/2000/svg" xmlns:xlink="http://www.w3.org/1999/xlink" x="0px" y="0px"
	 viewBox="0 0 1474 2154.3" enable-background="new 0 0 1474 2154.3" xml:space="preserve">
<g>
	<g>
		<g>
			<path d="M946.8,1429.5c-5.6,0-11.2-1.2-16.6-3.8c-18.9-9.2-26.7-31.9-17.6-50.7l72.3-148.7c0.9-1.8,1.9-3.6,3.1-5.2
				c0.9-2.5,3.6-11.7,3.6-31.7v-58.6c0-21,17-38,38-38c21,0,38,17,38,38v58.6c0,39.3-7.8,61.2-15.9,73.3L981,1408.1
				C974.4,1421.6,960.9,1429.5,946.8,1429.5z"/>
		</g>
		<g>
			<path d="M524,1429.3c-14.1,0-27.6-7.9-34.2-21.4l-70.7-145.4c-8.2-12.1-15.9-34-15.9-73.3v-58.6c0-21,17-38,38-38s38,17,38,38
				v58.6c0,20,2.7,29.2,3.6,31.7c1.2,1.7,2.2,3.4,3.1,5.2l72.3,148.6c9.2,18.9,1.3,41.6-17.5,50.7
				C535.2,1428.1,529.5,1429.3,524,1429.3z"/>
		</g>
	</g>
	<g>
		<g>
			<g>
				<path d="M477.3,1141.6c0,0-0.2,0.7-0.6,2c-0.2,0.5-0.4,1.2-0.6,1.8c-0.5,1.3-1.1,2.8-1.7,4.3c-0.6,1.5-1.5,3.4-2.3,4.7
					c-0.6,1-1.3,2.1-2,3.3c-5.7,9.4-13.7,17.9-23.5,26.2c-19.5,16.5-46.4,33-81.1,48.5c-17.5,7.6-36.6,15.2-59.2,20.8
					c-5.6,1.4-11.7,2.6-18,3.6c-4.9,0.6-4.8,0.7-9.6,1.1c-4,0.4-7.5,0.5-10.7,0.5c-13.3,0.2-26.2-1.2-39.1-3.6
					c-25.6-5.4-51.3-14-76.1-33c-12.1-9.6-24.6-22.6-32.1-41.5c-3.7-9.3-5.8-19.9-5.4-30.2c0.2-10.3,2.5-20,5.7-28.6l1.7-3.9
					l1.1-2.3l1.8-3.2c2.6-4.2,4.5-6.5,7.2-9.3c5.1-5.4,11.1-9.6,17.5-12.5l2.4-1.1l2.8-1l2.1-0.7l5.4-1.6l9.5-2.6
					c11.3-3,21.8-5.8,32.3-8.9c20.9-6.2,40.9-13.1,59.5-21.1c18.6-8,35.8-16.7,50.9-26.3c7.3-4.8,15.1-9.9,20.4-14.3
					c6.3-5.2,12.3-10.9,18-16.5c11.3-11.3,21.4-22.2,28.9-32.4c7.6-10.1,13.5-19,17-26.1c3.6-7.1,4.8-11.8,5.2-13.9
					c0.2-2.2-0.2-1.9-0.1-2l10.8-16.7c10.6-16.5,32.5-21.2,49-10.6c12.6,8.1,18.3,22.9,15.6,36.7c0,0-0.3,1.3-0.8,3.9
					c-0.5,2.7-1.5,6.1-2.9,10.3c-2.8,8.3-7.6,18.5-14.4,28.9c-6.7,10.6-15.1,21.9-25.4,33.7c-10.4,11.7-21.8,24.5-35.6,37.4
					c-6.9,6.5-14.2,13-22.5,19.8c-9.1,7.6-17.7,13-27,19.3c-18.6,11.9-38.9,22.3-60.3,31.6c-21.4,9.3-43.9,17.2-66.8,24.1
					c-11.4,3.4-23.1,6.6-34.2,9.6l-11.1,3.1c1.2-0.5,2.3-1.3,3.5-2.5c0.7-0.8,0.8-0.7,1.9-2.5c0.3-0.4,0.5-0.9,0.7-1.3l0.3-0.7
					c0-0.1-0.1,0.2-0.2,0.3l-0.4,1l-0.2,0.5l-0.1,0.2c-0.7,1.7,0.8-2,0.7-1.6c-1.4,4.8-1.5,6.3-0.4,9c1,2.8,4.6,7.5,10.5,11.8
					c11.7,9,29.7,15.6,46.6,18.7c8.5,1.5,17,2.3,24.6,2c2-0.1,3.7-0.2,4.9-0.3c0.3,0.1,5.6-0.7,5.7-0.7c3.8-0.7,7.7-1.5,11.7-2.6
					c16.1-4.2,32.2-10.7,46.4-17.6c28.5-13.7,50.9-28.9,62-39.1c2.8-2.5,4.8-4.7,6.2-6.3c1.2-1.5,1.9-2.5,1.8-2.5l0,0
					c-0.2,0.3-0.6,1.2-0.8,1.7c-0.5,1.2-0.8,2.8-0.4,1.3c0.4-1.4,0.6-2,0.6-2l0.1-0.3c5.8-20.2,26.8-31.8,47-26
					c20.2,5.8,31.8,26.8,26,47C477.5,1140.8,477.4,1141.3,477.3,1141.6z"/>
			</g>
		</g>
	</g>
	<g>
		<g>
			<g>
				<path d="M1065.5,1119.9c0,0,0.2,0.7,0.6,2c0.4,1.5,0.1-0.1-0.4-1.3c-0.2-0.5-0.7-1.4-0.8-1.7l0,0c-0.2-0.1,0.6,1,1.8,2.5
					c1.4,1.6,3.4,3.7,6.2,6.3c11.1,10.3,33.5,25.5,62,39.1c14.2,6.8,30.3,13.3,46.4,17.6c4,1.1,7.9,1.9,11.7,2.6
					c0.2,0,5.4,0.8,5.7,0.7c1.2,0.1,2.9,0.2,4.9,0.3c7.6,0.3,16.1-0.5,24.6-2c16.9-3,34.9-9.7,46.6-18.7c5.8-4.4,9.4-9,10.5-11.8
					c1.1-2.8,1.1-4.2-0.4-9c-0.2-0.4,1.4,3.3,0.7,1.6l-0.1-0.2l-0.2-0.5l-0.4-1c0-0.1-0.2-0.5-0.2-0.3l0.3,0.7
					c0.2,0.5,0.4,0.9,0.7,1.3c1.1,1.7,1.2,1.7,1.9,2.5c1.1,1.2,2.3,2,3.5,2.5l-11.1-3.1c-11.1-3-22.8-6.2-34.2-9.6
					c-22.9-6.9-45.4-14.8-66.8-24.1c-21.4-9.3-41.8-19.8-60.3-31.6c-9.3-6.2-17.9-11.6-27-19.3c-8.2-6.8-15.6-13.3-22.5-19.8
					c-13.7-12.9-25.2-25.7-35.6-37.4c-10.3-11.8-18.6-23.1-25.4-33.7c-6.8-10.4-11.6-20.6-14.4-28.9c-1.4-4.2-2.4-7.6-2.9-10.3
					c-0.5-2.6-0.8-3.9-0.8-3.9c-3.8-19.2,8.7-37.9,27.9-41.7c14.7-2.9,29,3.7,36.7,15.5l10.8,16.8c0.1,0.1-0.3-0.1-0.1,2
					c0.3,2.1,1.6,6.8,5.2,13.9c3.5,7,9.4,15.9,17,26.1c7.5,10.2,17.6,21.1,28.9,32.4c5.7,5.6,11.7,11.3,18,16.5
					c5.3,4.5,13.1,9.5,20.4,14.3c15.1,9.6,32.3,18.4,50.9,26.3c18.6,8,38.6,14.9,59.5,21.1c10.5,3.1,21.1,6,32.3,8.9l9.5,2.6
					l5.4,1.6l2.1,0.7l2.8,1l2.4,1.1c6.4,3,12.4,7.2,17.5,12.5c2.7,2.9,4.6,5.1,7.2,9.3l1.8,3.2l1.1,2.3l1.7,3.9
					c3.2,8.6,5.5,18.3,5.7,28.6c0.3,10.3-1.8,20.9-5.4,30.2c-7.4,18.9-20,31.9-32.1,41.5c-24.8,18.9-50.4,27.6-76.1,33
					c-12.9,2.4-25.8,3.9-39.1,3.6c-3.2,0-6.7-0.2-10.7-0.5c-4.8-0.4-4.7-0.5-9.6-1.1c-6.3-1-12.4-2.2-18-3.6
					c-22.7-5.6-41.7-13.2-59.2-20.8c-34.7-15.5-61.7-32.1-81.1-48.5c-9.7-8.3-17.7-16.8-23.5-26.2c-0.7-1.2-1.3-2.3-2-3.3
					c-0.7-1.3-1.6-3.3-2.3-4.7c-0.6-1.6-1.2-3-1.7-4.3c-0.2-0.7-0.4-1.3-0.6-1.8c-0.4-1.3-0.6-2-0.6-2c-6.4-20,4.6-41.4,24.6-47.7
					c20-6.4,41.3,4.6,47.7,24.6c0.1,0.3,0.2,0.6,0.3,0.9L1065.5,1119.9z"/>
			</g>
		</g>
	</g>
	<g>
		<path d="M735.4,1697.2c-87.5,0-158.6-71.2-158.6-158.6c0-37.5,13.3-74,37.6-102.5c13.6-16,37.5-18,53.5-4.4
			c16,13.6,18,37.5,4.4,53.5c-12.6,14.9-19.6,33.9-19.6,53.4c0,45.6,37.1,82.7,82.7,82.7s82.7-37.1,82.7-82.7
			c0-19.6-7-38.5-19.6-53.4c-13.6-16-11.6-40,4.4-53.5c16-13.6,40-11.6,53.5,4.4c24.2,28.6,37.6,65,37.6,102.6
			C894,1626.1,822.9,1697.2,735.4,1697.2z"/>
	</g>
	<g>
		<path d="M866.9,1586.4H603.9c-78.1,0-141.6-59.6-141.6-133c0-32.6,12.6-63.9,35.6-88.2c14.4-15.3,38.4-15.9,53.7-1.6
			c15.3,14.4,16,38.4,1.6,53.7c-6.8,7.2-14.9,19.3-14.9,36.1c0,31.4,29.4,57,65.6,57h262.9c36.2,0,65.6-25.6,65.6-57
			c0-16.8-8.1-28.8-14.8-36c-14.4-15.3-13.7-39.3,1.6-53.7c15.3-14.4,39.3-13.7,53.7,1.6c22.9,24.3,35.5,55.6,35.5,88.1
			C1008.4,1526.8,944.9,1586.4,866.9,1586.4z"/>
	</g>
	<g>
		<path d="M1026.2,962.3c-12.8,0-25.4-6.5-32.5-18.3c-10.9-17.9-5.1-41.3,12.8-52.1c70.4-42.6,109.2-97.9,109.2-155.7
			c0-60.2-42.9-117.3-114.3-158.8c15,30.2,23,63.1,23,96.8c0,59.5-47,106.9-84.7,145l-5.5,5.5c-13.8,14-32.9,22-52.5,22H594.6
			c0,0,0,0,0,0c-18.5,0-36.2-6.9-49.7-19.4c-41.7-38.5-98.9-91.3-98.9-156.9c0-32,7.6-63.3,21.6-92.2
			c-70.4,41.5-112.8,98.2-112.8,158c0,57.7,38.7,112.9,108.9,155.5c17.9,10.9,23.6,34.2,12.8,52.2c-10.9,17.9-34.2,23.6-52.1,12.8
			c-93.8-56.9-145.5-135.2-145.5-220.4c0-128.7,118.3-239.6,301.5-282.4c5.3-1.2,10.8-1.3,16.1-0.3l16.5,3.3
			c15.9,3.2,28,16.2,30.2,32.3c2.1,16.1-6.2,31.8-20.8,39c-62.8,31.1-100.3,84.3-100.3,142.2c0,32.1,42.3,71.4,73.6,100.4H881l5-5
			c27.9-28.2,62.7-63.3,62.7-91.5c0-59.6-37.6-114.3-100.6-146.2c-14.4-7.3-22.7-23-20.5-39c2.2-16,14.3-28.9,30.1-32.1l16.4-3.3
			c5.4-1.1,10.8-1,16.1,0.2c183.2,42.8,301.5,153.6,301.5,282.4c0,85.4-51.8,163.7-145.8,220.7
			C1039.7,960.5,1032.9,962.3,1026.2,962.3z"/>
	</g>
</g>
</svg>
