<?xml version="1.0" encoding="utf-8"?>
<!-- Generator: Adobe Illustrator 17.1.0, SVG Export Plug-In . SVG Version: 6.00 Build 0)  -->
<!DOCTYPE svg PUBLIC "-//W3C//DTD SVG 1.1//EN" "http://www.w3.org/Graphics/SVG/1.1/DTD/svg11.dtd">
<svg version="1.1" id="圖層_1" xmlns="http://www.w3.org/2000/svg" xmlns:xlink="http://www.w3.org/1999/xlink" x="0px" y="0px"
	 viewBox="0 0 1474 2154.3" enable-background="new 0 0 1474 2154.3" xml:space="preserve">
<g>
	<g>
		<path d="M385,1239.4c-0.1,0-0.1,0-0.3,0c-5,0-205.5,0-205.5,0c-19.4,0-37.1-10.8-45.6-27.7c-8.5-16.9-6-37,6-51.7l84-101.7
			L114.6,932.6c-12.6-14.5-15.4-34.9-7.1-52c8.3-17.3,26.2-28.2,45.9-28.2h229.9c28,0,50.6,21.9,50.6,48.9s-22.6,48.9-50.6,48.9
			H261.8l65.9,76c15.4,17.9,15.8,43.7,0.8,62l-44.3,53.7h68.5c36.9,0,82.7,0,82.7,48.9C435.6,1217.6,413,1239.4,385,1239.4z"/>
	</g>
	<g>
		<path d="M283.6,1586.1c-81.7,0-148.1-64.2-148.1-143.2c0-37.1,14.6-72.4,41.2-99.1c0.4-0.4,0.8-0.7,1-1l167.6-177.4
			c18.9-20,50.9-21.4,71.4-3.1c20.7,18.3,22.1,49.2,3.2,69.1l-169.4,179.4c-0.8,0.7-1.4,1.5-2.2,2.2c-7.6,8.3-11.8,18.9-11.8,30.1
			c0,25,21.1,45.3,46.9,45.3s46.9-20.4,46.9-45.3c0-27,22.6-48.9,50.6-48.9s50.6,21.9,50.6,48.9
			C431.5,1521.9,365.1,1586.1,283.6,1586.1z"/>
	</g>
	<g>
		<path d="M385.2,931.6c-5.4,0-10.8-0.9-16.1-2.6c-26.5-8.6-40.7-36.4-31.9-62l17.2-49.4c30.8-91.4,136.7-179.1,271.8-160.6
			c27.6,3.9,46.9,28.6,42.9,55.3c-4,26.7-29.7,45.3-57.2,41.5c-93.6-12.9-149.3,58.1-161.5,94.5l-17.5,50.1
			C426,918.7,406.2,931.6,385.2,931.6z"/>
	</g>
	<g>
		<path d="M926,1712.2H583.3c-139.5,0-252.9-109.7-252.9-244.6v-260.7c0-27,22.6-48.9,50.6-48.9c28,0,50.6,21.9,50.6,48.9v260.7
			c0,80.9,68.1,146.7,151.7,146.7H926c83.2,0,151.1-65.1,151.7-145.5l-29.5-500.5c-1.5-27,19.8-50.1,47.7-51.7
			c27.7-1.5,51.8,19,53.4,46.1l29.7,502c0,0.9,0.1,1.9,0.1,2.7C1179,1602.5,1065.5,1712.2,926,1712.2z"/>
	</g>
	<g>
		<path d="M655.4,755.6c-1.7,0-3.5-0.1-5.1-0.2c-87.1-8.4-152.9-78.9-152.9-163.6c0-90.7,76.3-164.5,170.1-164.5
			s170.1,73.8,170.1,164.5c0,27-22.6,48.9-50.6,48.9c-28,0-50.6-22-50.6-48.9c0-36.8-31-66.6-68.8-66.6c-38,0-68.8,29.9-68.8,66.6
			c0,34.4,26.6,62.9,61.9,66.3c27.7,2.7,48,26.7,45.2,53.5C702.9,736.8,681,755.6,655.4,755.6z"/>
	</g>
	<g>
		<path d="M1036.6,753.7c-12.5,0-24.9-4.5-34.8-13.4c-20.3-18.6-21.2-49.6-1.9-69.2c16.6-16.9,25.7-39.1,25.7-62.5
			c0-50.2-42.3-90.9-94-90.9c-51.9,0-94,40.9-94,90.9c0,27-22.6,48.9-50.6,48.9s-50.6-22-50.6-48.9c0-104.1,87.6-188.8,195.2-188.8
			s195.2,84.7,195.2,188.8c0,48.4-19,94.5-53.4,129.8C1063.4,748.5,1050,753.7,1036.6,753.7z"/>
	</g>
	<g>
		<path d="M1141.2,1023.3c-13.5,0-27.1-1.2-40.3-3.7c-27.4-5.2-45.2-30.9-39.8-57.4c5.4-26.5,32-43.7,59.3-38.5
			c6.7,1.2,13.7,2,20.7,2c58.8,0,106.7-46.3,106.7-103.2c0-56.9-47.9-103.2-106.7-103.2c-25.2,0-49.6,8.6-68.7,24.2
			c-21.3,17.4-53.3,14.8-71.3-5.8c-18-20.6-15.3-51.6,6-68.9c37.4-30.6,85-47.3,134-47.3c114.6,0,207.8,90.2,207.8,201
			C1349.1,933.1,1255.9,1023.3,1141.2,1023.3z"/>
	</g>
</g>
</svg>
