<?xml version="1.0" encoding="utf-8"?>
<!-- Generator: Adobe Illustrator 17.1.0, SVG Export Plug-In . SVG Version: 6.00 Build 0)  -->
<!DOCTYPE svg PUBLIC "-//W3C//DTD SVG 1.1//EN" "http://www.w3.org/Graphics/SVG/1.1/DTD/svg11.dtd">
<svg version="1.1" id="圖層_1" xmlns="http://www.w3.org/2000/svg" xmlns:xlink="http://www.w3.org/1999/xlink" x="0px" y="0px"
	 viewBox="0 0 1474 2154.3" enable-background="new 0 0 1474 2154.3" xml:space="preserve">
<g>
	<g>
		<path d="M433.4,1027c0,0,5.9-2.9,16.2-7.4c11.8-4.4,26.5-11.8,44.2-22.1c19.2-10.3,39.8-25.1,63.4-44.2
			c23.6-19.2,50.1-42.7,78.1-67.8l2.9-2.9l2.9-2.9l5.9-4.4c4.4-2.9,7.4-5.9,11.8-8.8c4.4-2.9,7.4-5.9,11.8-10.3
			c4.4-2.9,8.8-5.9,13.3-10.3c19.2-13.3,38.3-25.1,59-35.4c41.3-22.1,87-39.8,135.6-53.1c48.6-11.8,101.7-20.6,154.8-19.2
			c13.3,0,26.5,0,38.3,0h19.2h8.8l10.3,1.5l22.1,1.5c7.4,1.5,13.3,2.9,20.6,2.9c13.3,1.5,26.5,5.9,41.3,8.8
			c26.5,7.4,53.1,17.7,78.1,31c25.1,13.3,50.1,28,70.8,48.6c20.6,19.2,41.3,42.7,54.5,70.8c5.9,13.3,11.8,28,14.7,42.7l2.9,11.8
			l1.5,11.8l1.5,11.8v2.9c0-2.9,0,4.4,0,2.9l0,0v1.5v4.4v8.8c0,2.9,0,5.9-1.5,10.3c-1.5,8.8-2.9,16.2-5.9,25.1
			c-2.9,7.4-5.9,13.3-7.4,20.6c-2.9,7.4-7.4,13.3-10.3,19.2c-14.7,23.6-32.4,45.7-51.6,60.4c-38.3,32.4-82.5,51.6-122.3,63.4
			s-78.1,16.2-112,17.7c-16.2,0-32.4,0-47.2-1.5c-7.4,0-13.3-1.5-19.2-1.5c-5.9-1.5-13.3-1.5-19.2-2.9c-11.8-1.5-22.1-4.4-31-5.9
			s-16.2-4.4-22.1-5.9c-11.8-4.4-19.2-5.9-19.2-5.9c-10.3-2.9-16.2-14.7-13.3-25.1c2.9-8.8,11.8-14.7,22.1-13.3h1.5
			c0,0,5.9,0,17.7,1.5c5.9,1.5,13.3,1.5,20.6,1.5c8.8,0,17.7,1.5,28,1.5c5.9,0,10.3,0,16.2,0s13.3,0,19.2,0
			c11.8,0,26.5-1.5,41.3-2.9c29.5-2.9,60.4-10.3,94.3-22.1c16.2-5.9,32.4-13.3,50.1-22.1c8.8-4.4,16.2-8.8,23.6-14.7
			s16.2-10.3,22.1-17.7c14.7-11.8,26.5-26.5,35.4-41.3c1.5-4.4,4.4-7.4,5.9-11.8l4.4-11.8c1.5-2.9,1.5-7.4,2.9-10.3
			c0-1.5,1.5-4.4,1.5-7.4v-8.8v-4.4v-1.5l0,0c0-1.5,0,4.4,0,2.9v-1.5v-5.9V974l-1.5-5.9c-1.5-8.8-5.9-17.7-8.8-26.5
			c-7.4-17.7-22.1-33.9-36.9-48.6c-7.4-7.4-16.2-13.3-25.1-20.6c-8.8-5.9-19.2-13.3-29.5-17.7c-19.2-11.8-41.3-19.2-64.9-26.5
			c-11.8-2.9-22.1-5.9-33.9-8.8c-5.9-1.5-11.8-2.9-17.7-2.9l-16.2-1.5l-8.8-1.5h-8.8l-19.2-1.5c-11.8,0-25.1-1.5-36.9-1.5
			c-47.2-1.5-94.3,4.4-138.6,14.7c-44.2,10.3-87,25.1-123.8,42.7c-19.2,8.8-36.9,19.2-51.6,29.5c-4.4,2.9-7.4,4.4-11.8,7.4
			c-4.4,2.9-8.8,5.9-11.8,8.8c-7.4,5.9-14.7,11.8-22.1,16.2c-31,23.6-57.5,45.7-84,64.9c-26.5,19.2-50.1,35.4-72.2,45.7
			c-20.6,10.3-38.3,17.7-50.1,20.6c-11.8,4.4-17.7,5.9-17.7,5.9l0,0c-10.3,4.4-22.1-1.5-26.5-11.8
			C418.6,1041.8,423,1031.5,433.4,1027z"/>
	</g>
	<g>
		<path d="M818.1,1224.6c-14.7,0-28-7.4-33.9-22.1c-8.8-19.2-1.5-41.3,17.7-50.1c97.3-45.7,258-5.9,275.6-1.5
			c20.6,5.9,32.4,25.1,28,45.7c-5.9,20.6-25.1,32.4-45.7,28c-41.3-10.3-163.6-32.4-225.5-2.9C828.4,1224.6,824,1224.6,818.1,1224.6z
			"/>
	</g>
	<g>
		<path d="M468.7,1316c-4.4,0-8.8,0-14.7,0c-50.1-4.4-70.8-25.1-85.5-41.3c-10.3-10.3-14.7-14.7-35.4-17.7
			c-28-2.9-50.1,5.9-73.7,13.3c-26.5,8.8-56,19.2-87,8.8c-23.6-8.8-38.3-26.5-39.8-50.1c-1.5-14.7,4.4-28,8.8-39.8
			c2.9-7.4,5.9-16.2,5.9-20.6c-4.4-2.9-13.3-5.9-20.6-7.4c-23.6-7.4-67.8-20.6-70.8-70.8c-4.4-51.6,35.4-73.7,57.5-85.5
			c8.8-4.4,17.7-10.3,20.6-14.7c1.5-1.5,0-10.3,0-14.7c-2.9-16.2-7.4-60.4,41.3-81.1c41.3-16.2,79.6,7.4,110.6,26.5
			c16.2,10.3,32.4,20.6,47.2,25.1c1.5,0,2.9,1.5,4.4,1.5c2.9-2.9,7.4-8.8,10.3-13.3c10.3-16.2,26.5-36.9,53.1-48.6
			c70.8-31,150.4,44.2,159.2,53.1c14.7,14.7,14.7,38.3,0,53.1c-14.7,14.7-38.3,14.7-53.1,0c-23.6-23.6-60.4-44.2-75.2-36.9
			c-8.8,4.4-14.7,11.8-23.6,23.6c-14.7,20.6-41.3,57.5-97.3,41.3c-25.1-7.4-47.2-22.1-66.3-33.9c-10.3-5.9-28-17.7-36.9-20.6v1.5
			c1.5,16.2,4.4,41.3-11.8,66.3c-13.3,19.2-32.4,31-47.2,38.3c-5.9,2.9-13.3,7.4-16.2,10.3c4.4,1.5,11.8,4.4,16.2,5.9
			c22.1,5.9,56,16.2,69.3,51.6c8.8,25.1,4.4,47.2-1.5,63.4c5.9-1.5,11.8-4.4,17.7-5.9c26.5-8.8,61.9-22.1,106.1-17.7
			c48.6,4.4,67.8,25.1,82.5,39.8c10.3,10.3,16.2,16.2,38.3,17.7c35.4,2.9,78.1-20.6,115-41.3c22.1-13.3,44.2-25.1,64.9-32.4
			c39.8-13.3,66.3-2.9,84,4.4c11.8,4.4,11.8,4.4,17.7,2.9c11.8-4.4,23.6-11.8,38.3-19.2c35.4-17.7,75.2-38.3,112-41.3
			c51.6-2.9,95.8,20.6,101.7,23.6c17.7,10.3,25.1,32.4,14.7,51.6c-10.3,17.7-32.4,25.1-51.6,14.7c0,0-31-16.2-61.9-14.7
			c-20.6,1.5-53.1,17.7-81.1,32.4c-14.7,7.4-29.5,14.7-42.7,20.6c-33.9,14.7-59,4.4-75.2-2.9c-11.8-5.9-17.7-7.4-31-2.9
			c-13.3,4.4-32.4,14.7-51.6,26.5C573.4,1286.5,523.3,1316,468.7,1316z"/>
	</g>
	<g>
		<path d="M368.5,1422.1c-51.6,0-72.2-28-85.5-47.2c-5.9-8.8-11.8-16.2-19.2-22.1c-1.5-1.5-2.9-1.5-2.9-1.5c-1.5,0-8.8,1.5-14.7,2.9
			c-22.1,5.9-54.5,16.2-103.2-2.9c-36.9-14.7-61.9-39.8-70.8-73.7c-8.8-35.4,4.4-69.3,19.2-87c20.6-23.6,64.9-36.9,78.1-41.3
			c20.6-5.9,41.3,5.9,47.2,25.1c5.9,20.6-5.9,41.3-25.1,47.2c-17.7,4.4-38.3,14.7-42.7,19.2c-1.5,1.5-4.4,10.3-2.9,19.2
			c2.9,7.4,10.3,14.7,23.6,19.2c23.6,8.8,36.9,5.9,54.5,0c19.2-5.9,50.1-14.7,82.5,8.8c19.2,13.3,29.5,28,36.9,39.8
			c10.3,16.2,11.8,16.2,28,14.7c14.7-1.5,39.8-16.2,63.4-32.4c41.3-28,88.4-59,144.5-50.1c51.6,7.4,67.8,35.4,78.1,51.6
			c1.5,2.9,4.4,5.9,4.4,7.4c0,0,1.5,0,7.4,0c2.9,0,7.4,0,13.3-1.5c31-4.4,56-39.8,84-76.6c25.1-35.4,51.6-70.8,88.4-91.4
			c67.8-36.9,129.7-17.7,135.6-16.2c19.2,7.4,31,28,23.6,48.6c-7.4,19.2-28,29.5-47.2,23.6c-2.9,0-36.9-10.3-75.2,10.3
			c-22.1,11.8-42.7,39.8-63.4,69.3c-33.9,47.2-72.2,98.8-135.6,107.6c-63.4,7.4-84-17.7-100.2-42.7c-7.4-11.8-8.8-13.3-23.6-16.2
			c-26.5-4.4-59,17.7-91.4,38.3c-32.4,20.6-64.9,42.7-100.2,44.2C374.4,1422.1,371.5,1422.1,368.5,1422.1z"/>
	</g>
</g>
</svg>
