<?xml version="1.0" encoding="utf-8"?>
<!-- Generator: Adobe Illustrator 17.1.0, SVG Export Plug-In . SVG Version: 6.00 Build 0)  -->
<!DOCTYPE svg PUBLIC "-//W3C//DTD SVG 1.1//EN" "http://www.w3.org/Graphics/SVG/1.1/DTD/svg11.dtd">
<svg version="1.1" id="圖層_1" xmlns="http://www.w3.org/2000/svg" xmlns:xlink="http://www.w3.org/1999/xlink" x="0px" y="0px"
	 viewBox="0 0 1474 2154.3" enable-background="new 0 0 1474 2154.3" xml:space="preserve">
<g>
	<g>
		<path d="M1020,1731.6H454c-19.2,0-35.4-13.3-38.3-31L249.1,888.5c-5.9-28,1.5-56,19.2-76.6c17.7-22.1,44.2-33.9,72.2-33.9h796
			c28,0,54.5,11.8,72.2,33.9c17.7,22.1,25.1,50.1,19.2,76.6l-169.5,812.2C1055.4,1718.4,1039.2,1731.6,1020,1731.6z M486.4,1653.5
			h501.2l160.7-779.8c1.5-5.9-1.5-8.8-2.9-10.3c-1.5-1.5-4.4-4.4-10.3-4.4H339c-5.9,0-8.8,2.9-10.3,4.4s-4.4,5.9-2.9,10.3
			L486.4,1653.5z"/>
	</g>
	<g>
		<path d="M589.6,1429.5c-2.9,0-5.9,0-7.4-1.5c-22.1-4.4-35.4-25.1-31-47.2L647.1,918c4.4-22.1,25.1-35.4,47.2-31
			c22.1,4.4,35.4,25.1,31,47.2L629.4,1397C625,1416.2,608.8,1429.5,589.6,1429.5z"/>
	</g>
	<g>
		<circle cx="809.2" cy="1195.1" r="63.4"/>
	</g>
	<g>
		<circle cx="779.8" cy="1361.7" r="63.4"/>
	</g>
	<g>
		<circle cx="937.5" cy="1364.6" r="63.4"/>
	</g>
	<g>
		<circle cx="908" cy="1531.2" r="63.4"/>
	</g>
	<g>
		<circle cx="748.8" cy="1526.7" r="63.4"/>
	</g>
	<g>
		<path d="M1084.9,462.5H769.4c-25.1,0-47.2,17.7-51.6,42.7l-61.9,302.2c0,2.9-1.5,7.4-1.5,10.3h107.6l51.6-249.1h271.2
			c29.5,0,53.1-23.6,53.1-53.1C1137.9,486.1,1114.4,462.5,1084.9,462.5z"/>
	</g>
</g>
</svg>
