<?xml version="1.0" encoding="utf-8"?>
<!-- Generator: Adobe Illustrator 17.1.0, SVG Export Plug-In . SVG Version: 6.00 Build 0)  -->
<!DOCTYPE svg PUBLIC "-//W3C//DTD SVG 1.1//EN" "http://www.w3.org/Graphics/SVG/1.1/DTD/svg11.dtd">
<svg version="1.1" id="圖層_1" xmlns="http://www.w3.org/2000/svg" xmlns:xlink="http://www.w3.org/1999/xlink" x="0px" y="0px"
	 viewBox="0 0 1474 2154.3" enable-background="new 0 0 1474 2154.3" xml:space="preserve">
<g>
	<g>
		<path d="M737,1641.7c-370,0-669.2-244.7-669.2-545.4c0-33.9,4.4-67.8,11.8-101.7l7.4-33.9h1300.1l7.4,33.9
			c7.4,33.9,11.8,67.8,11.8,101.7C1406.2,1397,1107,1641.7,737,1641.7z M159.2,1049.2c-1.5,16.2-2.9,31-2.9,47.2
			c0,252.1,260.9,456.9,580.8,456.9s580.8-204.9,580.8-456.9c0-16.2-1.5-31-2.9-47.2L159.2,1049.2L159.2,1049.2z"/>
	</g>
	<g>
		<path d="M1319.2,1027l-51.6-72.2l2.9-1.5c1.5-1.5,4.4-2.9,2.9-8.8s-5.9-5.9-7.4-7.4l-84-16.2l60.4-63.4c1.5-1.5,4.4-4.4,1.5-8.8
			c-1.5-5.9-5.9-5.9-7.4-5.9l-87-2.9l48.6-72.2c1.5-1.5,2.9-4.4,0-8.8s-7.4-4.4-8.8-4.4l-84,13.3l32.4-76.6c0-1.5,2.9-5.9-1.5-8.8
			c-4.4-4.4-7.4-2.9-8.8-1.5l-78.1,28l16.2-81.1c0-1.5,1.5-5.9-2.9-8.8c-4.4-2.9-8.8-1.5-8.8,0l-70.8,42.7l-1.5-84
			c0-1.5,0-5.9-5.9-7.4c-5.9-1.5-8.8,0-8.8,1.5L905,629.1l-17.7-85.5c0-1.5-1.5-5.9-5.9-7.4c-5.9-1.5-7.4,1.5-8.8,2.9l-53.1,70.8
			l-32.4-85.5c0-1.5-1.5-5.9-7.4-5.9c-5.9,0-7.4,2.9-8.8,4.4L726.7,604l-42.7-81.1c0-1.5-2.9-4.4-8.8-4.4s-7.4,4.4-7.4,5.9l-31,84
			l-51.6-70.8c-1.5-1.5-2.9-4.4-8.8-2.9c-5.9,1.5-5.9,5.9-5.9,7.4l-16.2,84l-60.4-57.5c-1.5-1.5-4.4-4.4-8.8-1.5
			c-5.9,2.9-5.9,5.9-5.9,7.4v82.5l-67.8-42.7c-1.5-1.5-4.4-2.9-8.8,0c-4.4,2.9-4.4,7.4-2.9,8.8l16.2,78.1l-79.6-22.1
			c-1.5,0-5.9-1.5-8.8,2.9c-4.4,4.4-1.5,8.8-1.5,8.8l33.9,73.7l-82.5-10.3c-1.5,0-5.9,0-8.8,4.4c-2.9,4.4,0,8.8,0,8.8l50.1,69.3
			l-85.5,4.4c-1.5,0-5.9,0-7.4,5.9c-1.5,5.9,1.5,8.8,1.5,8.8l61.9,60.4l-81.1,19.2c-1.5,0-5.9,1.5-7.4,7.4c-1.5,5.9,2.9,7.4,4.4,8.8
			l-23.6,38.3l-25.1,36.9c-33.9-22.1-50.1-60.4-42.7-98.8c2.9-19.2,11.8-36.9,25.1-50.1c-5.9-19.2-4.4-41.3,2.9-60.4
			s20.6-35.4,36.9-47.2c-1.5-19.2,2.9-38.3,13.3-56c10.3-17.7,26.5-32.4,44.2-39.8c2.9-19.2,10.3-36.9,25.1-51.6
			c14.7-14.7,32.4-25.1,51.6-29.5c5.9-17.7,19.2-33.9,35.4-45.7c16.2-11.8,35.4-17.7,54.5-17.7c10.3-17.7,25.1-31,45.7-38.3
			c19.2-7.4,38.3-10.3,56-5.9c13.3-14.7,31-26.5,51.6-31c19.2-4.4,39.8-2.9,57.5,4.4c14.7-13.3,35.4-20.6,56-22.1
			c20.6-1.5,39.8,2.9,56,13.3c17.7-10.3,36.9-16.2,59-14.7c22.1,1.5,41.3,10.3,57.5,23.6c17.7-7.4,38.3-8.8,57.5-4.4
			c20.6,4.4,39.8,16.2,53.1,31c19.2-4.4,38.3-1.5,57.5,5.9c19.2,8.8,35.4,22.1,45.7,39.8c19.2,0,38.3,5.9,56,17.7
			c17.7,11.8,29.5,28,36.9,47.2c19.2,4.4,38.3,13.3,53.1,29.5c14.7,14.7,23.6,33.9,25.1,53.1c19.2,7.4,35.4,20.6,47.2,38.3
			c10.3,17.7,16.2,36.9,14.7,56c17.7,10.3,31,26.5,38.3,45.7c8.8,20.6,8.8,41.3,4.4,61.9c13.3,13.3,23.6,29.5,28,50.1
			c8.8,38.3-5.9,76.6-38.3,98.8L1319.2,1027z"/>
	</g>
	<g>
		<g>
			<path d="M381.8,891.4c-11.8,0-22.1-4.4-31-13.3c-17.7-17.7-17.7-45.7,0-61.9l67.8-67.8c17.7-17.7,45.7-17.7,61.9,0
				c16.2,17.7,17.7,45.7,0,61.9l-67.8,69.3C403.9,888.5,392.1,891.4,381.8,891.4z"/>
		</g>
		<g>
			<path d="M813.7,766.1c-11.8,0-22.1-4.4-31-13.3c-17.7-17.7-17.7-45.7,0-61.9l67.8-67.8c17.7-17.7,45.7-17.7,61.9,0
				c17.7,17.7,17.7,45.7,0,61.9l-66.3,67.8C837.2,761.7,825.5,766.1,813.7,766.1z"/>
		</g>
		<g>
			<path d="M1092.2,891.4c-11.8,0-22.1-4.4-31-13.3l-67.8-67.8c-17.7-17.7-17.7-45.7,0-61.9c17.7-17.7,45.7-17.7,61.9,0l67.8,67.8
				c17.7,17.7,17.7,45.7,0,61.9C1115.8,888.5,1104,891.4,1092.2,891.4z"/>
		</g>
		<g>
			<path d="M660.4,766.1c-11.8,0-22.1-4.4-31-13.3l-69.3-69.3c-17.7-17.7-17.7-45.7,0-61.9c17.7-17.7,45.7-17.7,61.9,0l67.8,67.8
				c17.7,17.7,17.7,45.7,0,61.9C682.5,761.7,670.7,766.1,660.4,766.1z"/>
		</g>
	</g>
	<g>
		<path d="M949.3,1721.3H524.8c-38.3,0-70.8-31-70.8-70.8v-92.9c0-25.1,19.2-44.2,44.2-44.2s44.2,19.2,44.2,44.2v73.7h389.1v-73.7
			c0-25.1,19.2-44.2,44.2-44.2s44.2,19.2,44.2,44.2v94.3C1020,1690.4,989.1,1721.3,949.3,1721.3z"/>
	</g>
</g>
</svg>
