<?xml version="1.0" encoding="utf-8"?>
<!-- Generator: Adobe Illustrator 17.1.0, SVG Export Plug-In . SVG Version: 6.00 Build 0)  -->
<!DOCTYPE svg PUBLIC "-//W3C//DTD SVG 1.1//EN" "http://www.w3.org/Graphics/SVG/1.1/DTD/svg11.dtd">
<svg version="1.1" id="圖層_1" xmlns="http://www.w3.org/2000/svg" xmlns:xlink="http://www.w3.org/1999/xlink" x="0px" y="0px"
	 viewBox="0 0 1474 2154.3" enable-background="new 0 0 1474 2154.3" xml:space="preserve">
<g>
	<g>
		<path d="M1322.2,1678.6H151.8c-25.1,0-44.2-19.2-44.2-44.2V819.2c0-25.1,19.2-44.2,44.2-44.2h1170.4c25.1,0,44.2,19.2,44.2,44.2
			v813.7C1366.4,1657.9,1345.8,1678.6,1322.2,1678.6z M196,1590.1H1278V863.4H196V1590.1z"/>
	</g>
	<g>
		<path d="M1073.1,997.6c-13.3,0-26.5-5.9-35.4-17.7L737,592.2L434.8,981.4c-14.7,19.2-42.7,22.1-61.9,7.4
			c-19.2-14.7-22.1-42.7-7.4-61.9l336.1-433.4c8.8-10.3,20.6-17.7,35.4-17.7c14.7,0,26.5,5.9,35.4,17.7l336.1,433.4
			c14.7,19.2,11.8,47.2-7.4,61.9C1092.2,994.6,1083.4,997.6,1073.1,997.6z"/>
	</g>
	<g>
		<rect x="259.4" y="1445.7" width="955.2" height="88.4"/>
	</g>
</g>
</svg>
