<?xml version="1.0" encoding="utf-8"?>
<!-- Generator: Adobe Illustrator 17.1.0, SVG Export Plug-In . SVG Version: 6.00 Build 0)  -->
<!DOCTYPE svg PUBLIC "-//W3C//DTD SVG 1.1//EN" "http://www.w3.org/Graphics/SVG/1.1/DTD/svg11.dtd">
<svg version="1.1" id="圖層_1" xmlns="http://www.w3.org/2000/svg" xmlns:xlink="http://www.w3.org/1999/xlink" x="0px" y="0px"
	 viewBox="0 0 1474 2154.3" enable-background="new 0 0 1474 2154.3" xml:space="preserve">
<g>
	<g>
		<path d="M964,1130.2l-70.8-53.1l110.6-150.4c14.7-19.2,16.2-45.7,4.4-67.8L734.1,509.7l0,0L458.4,860.5
			c-11.8,22.1-8.8,48.6,4.4,67.8l112,150.4l-70.8,53.1L393.6,981.4c-35.4-48.6-39.8-115-8.8-166.6l2.9-4.4l274.2-353.8
			c16.2-25.1,42.7-39.8,70.8-39.8c29.5,0,56,14.7,70.8,39.8l278.6,356.7c31,53.1,26.5,117.9-8.8,166.6L964,1130.2z"/>
	</g>
	<g>
		<g>
			<path d="M1017.1,1372c-17.7,0-35.4-11.8-41.3-29.5L737,673.3c0-1.5,0-1.5-1.5-2.9c0-1.5-1.5-4.4-5.9-4.4c-4.4,0-5.9,2.9-5.9,4.4
				s0,1.5-1.5,2.9l-222.6,669.2c-7.4,23.6-32.4,35.4-56,28c-23.6-7.4-35.4-32.4-28-56l222.6-667.7c11.8-41.3,47.2-69.3,89.9-69.3
				c0,0,0,0,1.5,0c42.7,0,78.1,26.5,91.4,67.8l237.3,667.7c8.8,23.6-4.4,48.6-26.5,56C1027.4,1372,1021.5,1372,1017.1,1372z"/>
		</g>
		<g>
			<path d="M737,1560.6c-181.3,0-324.3-94.3-324.3-215.2c0-25.1,19.2-44.2,44.2-44.2s44.2,19.2,44.2,44.2
				c0,75.2,123.8,126.8,235.8,126.8s235.8-51.6,235.8-126.8c0-25.1,19.2-44.2,44.2-44.2s44.2,19.2,44.2,44.2
				C1061.3,1466.3,919.8,1560.6,737,1560.6z"/>
		</g>
		<g>
			<g>
				<g>
					<path d="M383.2,1663.8c-109.1,0-197.5-88.4-197.5-197.5c0-76.6,44.2-147.4,113.5-178.4c22.1-10.3,48.6-1.5,59,22.1
						c10.3,22.1,1.5,48.6-22.1,59c-38.3,17.7-63.4,56-63.4,98.8c0,60.4,48.6,109.1,109.1,109.1c51.6,0,97.3-36.9,107.6-88.4
						c4.4-23.6,28-39.8,51.6-35.4c23.6,4.4,39.8,28,35.4,51.6C558.7,1596,477.6,1663.8,383.2,1663.8z"/>
				</g>
			</g>
			<g>
				<path d="M526.2,1736.1c-25.1,0-50.1-5.9-73.7-14.7c-22.1-10.3-32.4-35.4-23.6-57.5c10.3-22.1,35.4-32.4,57.5-23.6
					c11.8,5.9,25.1,7.4,38.3,7.4c63.4,0,95.8-64.9,104.7-126.8c2.9-23.6,26.5-41.3,50.1-36.9c23.6,2.9,41.3,26.5,36.9,50.1
					C700.2,1656.5,625,1736.1,526.2,1736.1z"/>
			</g>
		</g>
		<g>
			<g>
				<g>
					<path d="M1090.8,1663.8c-94.3,0-176.9-67.8-194.6-160.7c-4.4-23.6,11.8-47.2,35.4-51.6s47.2,11.8,51.6,35.4
						c10.3,51.6,54.5,88.4,107.6,88.4c60.4,0,109.1-48.6,109.1-109.1c0-42.7-25.1-81.1-63.4-98.8c-22.1-10.3-32.4-36.9-22.1-59
						c10.3-22.1,36.9-32.4,59-22.1c69.3,32.4,113.5,103.2,113.5,178.4C1288.3,1575.4,1199.9,1663.8,1090.8,1663.8z"/>
				</g>
			</g>
			<g>
				<path d="M947.8,1736.1c-98.8,0-173.9-79.6-191.6-201.9c-2.9-23.6,13.3-47.2,36.9-50.1c23.6-2.9,47.2,13.3,50.1,36.9
					c8.8,61.9,41.3,126.8,104.7,126.8c13.3,0,25.1-2.9,38.3-7.4c22.1-10.3,48.6,0,57.5,23.6c10.3,22.1,0,48.6-23.6,57.5
					C997.9,1731.6,972.9,1736.1,947.8,1736.1z"/>
			</g>
		</g>
	</g>
</g>
</svg>
