<?xml version="1.0" encoding="utf-8"?>
<!-- Generator: Adobe Illustrator 17.1.0, SVG Export Plug-In . SVG Version: 6.00 Build 0)  -->
<!DOCTYPE svg PUBLIC "-//W3C//DTD SVG 1.1//EN" "http://www.w3.org/Graphics/SVG/1.1/DTD/svg11.dtd">
<svg version="1.1" id="圖層_1" xmlns="http://www.w3.org/2000/svg" xmlns:xlink="http://www.w3.org/1999/xlink" x="0px" y="0px"
	 viewBox="0 0 1474 2154.3" enable-background="new 0 0 1474 2154.3" xml:space="preserve">
<g>
	<g>
		<path d="M670.7,1044.7c-4.4,0-10.3-1.5-14.7-2.9L109.1,825.1C94.3,819.2,84,804.5,84,788.3s11.8-31,26.5-35.4l689.8-219.6
			c8.8-2.9,17.7-2.9,26.5,1.5l546.9,216.7c14.7,5.9,25.1,20.6,25.1,36.9s-11.8,31-26.5,35.4l-689.8,219.6
			C678,1044.7,675.1,1044.7,670.7,1044.7z M238.8,792.7l433.4,172.5l571.9-181.3L812.2,611.4L238.8,792.7z"/>
	</g>
	<g>
		<path d="M673.6,1622.6c-4.4,0-8.8-1.5-13.3-2.9L69.3,1397c-16.2-5.9-26.5-22.1-25.1-39.8l48.6-548.3c1.5-20.6,20.6-36.9,42.7-35.4
			c20.6,1.5,36.9,20.6,35.4,42.7l-45.7,518.9l551.3,209.3l673.6-216.7L1308.9,800c-1.5-20.6,14.7-39.8,35.4-41.3
			c20.6-1.5,39.8,14.7,41.3,35.4l44.2,555.7c1.5,17.7-10.3,33.9-26.5,39.8l-716.4,231.4C682.5,1622.6,678,1622.6,673.6,1622.6z"/>
	</g>
	<g>
		<path d="M675.1,1609.3c-22.1,0-38.3-17.7-38.3-38.3v-564.5c0-22.1,17.7-38.3,38.3-38.3c20.6,0,38.3,17.7,38.3,38.3V1571
			C713.4,1593.1,695.7,1609.3,675.1,1609.3z"/>
	</g>
	<g>
		<path d="M810.7,674.8c0,0-1.5,16.2-5.9,41.3c-2.9,11.8-5.9,26.5-10.3,41.3c-1.5,7.4-4.4,14.7-7.4,22.1c-2.9,7.4-4.4,14.7-7.4,23.6
			c-5.9,14.7-11.8,31-17.7,44.2c-5.9,14.7-11.8,26.5-17.7,38.3c-10.3,22.1-20.6,35.4-20.6,35.4c-7.4,11.8-25.1,14.7-36.9,7.4
			c-8.8-5.9-11.8-14.7-11.8-23.6c0,0,1.5-16.2,5.9-41.3c2.9-11.8,5.9-26.5,10.3-41.3c4.4-14.7,8.8-31,14.7-45.7
			c2.9-7.4,5.9-14.7,8.8-22.1c2.9-7.4,5.9-14.7,8.8-22.1c5.9-14.7,11.8-26.5,17.7-38.3c11.8-22.1,20.6-35.4,20.6-35.4
			c8.8-11.8,25.1-14.7,36.9-5.9C806.3,657.1,810.7,665.9,810.7,674.8z"/>
	</g>
	<g>
		<path d="M1021.5,801.5c0,0-33.9,4.4-87,7.4c-26.5,1.5-56,2.9-88.4,4.4c-32.4,1.5-66.3,1.5-101.7,1.5c-33.9,0-69.3,0-101.7-1.5
			c-32.4-1.5-63.4-2.9-88.4-4.4c-51.6-2.9-87-7.4-87-7.4c-7.4-1.5-13.3-7.4-11.8-16.2c1.5-5.9,5.9-11.8,11.8-11.8
			c0,0,33.9-4.4,87-7.4c26.5-1.5,56-2.9,88.4-4.4c32.4-1.5,66.3-1.5,101.7-1.5c33.9,0,69.3,0,101.7,1.5c32.4,1.5,63.4,2.9,88.4,4.4
			c51.6,2.9,87,7.4,87,7.4c7.4,1.5,13.3,7.4,11.8,16.2C1033.3,795.6,1027.4,800,1021.5,801.5z"/>
	</g>
</g>
</svg>
