<?xml version="1.0" encoding="utf-8"?>
<!-- Generator: Adobe Illustrator 17.1.0, SVG Export Plug-In . SVG Version: 6.00 Build 0)  -->
<!DOCTYPE svg PUBLIC "-//W3C//DTD SVG 1.1//EN" "http://www.w3.org/Graphics/SVG/1.1/DTD/svg11.dtd">
<svg version="1.1" id="圖層_1" xmlns="http://www.w3.org/2000/svg" xmlns:xlink="http://www.w3.org/1999/xlink" x="0px" y="0px"
	 viewBox="0 0 1474 2154.3" enable-background="new 0 0 1474 2154.3" xml:space="preserve">
<g>
	<g>
		<path d="M295.4,1167.5c-122.9,0-222.8-101.5-222.8-226.2s100-226.2,222.8-226.2c26.4,0,52.2,4.7,76.8,13.8
			c20.2,7.5,30.4,30,22.9,50.1c-7.5,20.2-30,30.4-50.1,22.9c-15.8-5.9-32.5-8.9-49.6-8.9c-79.9,0-144.9,66.5-144.9,148.2
			c0,81.7,65,148.2,144.9,148.2c25.7,0,50.9-7,72.9-20.1c18.5-11,42.4-5,53.4,13.5c11,18.5,5,42.4-13.5,53.4
			C374.2,1156.7,335.2,1167.5,295.4,1167.5z"/>
	</g>
	<g>
		<path d="M295.4,1317.8c-77.9,0-148.8-40.2-189.7-107.5c-11.2-18.4-5.3-42.4,13-53.5c18.4-11.2,42.4-5.3,53.5,13
			c26.7,43.9,72.7,70.1,123.1,70.1c25.7,0,50.9-7,72.9-20.1c18.5-11.1,42.4-5,53.4,13.5c11,18.5,5,42.4-13.5,53.4
			C374.2,1307,335.2,1317.8,295.4,1317.8z"/>
	</g>
	<g>
		<path d="M1174.6,1317.8c-39.8,0-78.8-10.8-112.9-31.2c-18.5-11-24.5-35-13.5-53.4c11-18.5,34.9-24.5,53.4-13.5
			c22,13.2,47.3,20.1,72.9,20.1c50.4,0,96.4-26.2,123.1-70.1c11.2-18.4,35.2-24.2,53.5-13c18.4,11.2,24.2,35.1,13.1,53.5
			C1323.4,1277.6,1252.5,1317.8,1174.6,1317.8z"/>
	</g>
	<g>
		<path d="M1176.6,1167.5c-39.7,0-78.7-10.8-112.8-31.1c-18.5-11-24.5-35-13.5-53.4c11-18.5,35-24.5,53.4-13.5
			c22,13.1,47.2,20.1,72.9,20.1c79.9,0,144.9-66.5,144.9-148.2c0-81.7-65-148.2-144.9-148.2c-17.1,0-33.8,3-49.6,8.9
			c-20.1,7.5-42.6-2.7-50.1-22.9c-7.5-20.2,2.7-42.6,22.9-50.1c24.6-9.2,50.4-13.8,76.8-13.8c122.9,0,222.8,101.5,222.8,226.2
			S1299.4,1167.5,1176.6,1167.5z"/>
	</g>
	<g>
		<path d="M359.3,1155.5c-14.7,0-28.7-8.3-35.3-22.5c-9.1-19.5-0.7-42.7,18.8-51.8l753.5-352.8c19.5-9.1,42.7-0.7,51.8,18.8
			c9.1,19.5,0.7,42.7-18.8,51.8l-753.5,352.8C370.4,1154.3,364.8,1155.5,359.3,1155.5z"/>
	</g>
	<g>
		<path d="M1112.7,1155.5c-5.5,0-11.2-1.2-16.5-3.7L342.7,799c-19.5-9.1-27.9-32.3-18.8-51.8c9.1-19.5,32.3-27.9,51.8-18.8
			l753.5,352.8c19.5,9.1,27.9,32.3,18.8,51.8C1141.4,1147.2,1127.4,1155.5,1112.7,1155.5z"/>
	</g>
	<g>
		<path d="M359.3,1307c-14.7,0-28.7-8.3-35.3-22.5c-9.1-19.5-0.7-42.7,18.8-51.8l376.7-176.4c19.5-9.1,42.7-0.7,51.8,18.8
			c9.1,19.5,0.7,42.7-18.8,51.8l-376.7,176.4C370.4,1305.8,364.8,1307,359.3,1307z"/>
	</g>
	<g>
		<path d="M1112.7,1307c-5.5,0-11.2-1.2-16.5-3.7l-376.7-176.4c-19.5-9.1-27.9-32.3-18.8-51.8c9.1-19.5,32.3-27.9,51.8-18.8
			l376.7,176.4c19.5,9.1,27.9,32.3,18.8,51.8C1141.4,1298.7,1127.4,1307,1112.7,1307z"/>
	</g>
	<g>
		<path d="M295.4,1436.8c-65.4,0-127.2-29-169.7-79.6c-13.8-16.5-11.7-41.1,4.8-54.9c16.5-13.8,41.1-11.7,54.9,4.8
			c27.6,32.9,67.7,51.8,110,51.8c25.7,0,50.9-7,72.9-20.1c18.5-11.1,42.4-5,53.4,13.5c11,18.5,5,42.4-13.5,53.4
			C374.2,1426,335.2,1436.8,295.4,1436.8z"/>
	</g>
	<g>
		<path d="M1174.4,1436.8c-39.8,0-78.8-10.8-112.9-31.2c-18.5-11-24.5-35-13.5-53.4c11-18.5,34.9-24.5,53.4-13.5
			c22,13.2,47.3,20.1,72.9,20.1c42.3,0,82.4-18.9,110-51.7c13.8-16.5,38.4-18.6,54.9-4.8c16.5,13.8,18.6,38.4,4.8,54.9
			C1301.7,1407.8,1239.8,1436.8,1174.4,1436.8z"/>
	</g>
	<g>
		<path d="M359.3,1426c-14.7,0-28.7-8.3-35.3-22.5c-9.1-19.5-0.7-42.7,18.8-51.8l376.7-176.4c19.5-9.1,42.7-0.7,51.8,18.8
			c9.1,19.5,0.7,42.7-18.8,51.8l-376.7,176.4C370.4,1424.8,364.8,1426,359.3,1426z"/>
	</g>
	<g>
		<path d="M1112.7,1426c-5.5,0-11.2-1.2-16.5-3.7l-376.7-176.4c-19.5-9.1-27.9-32.3-18.8-51.8c9.1-19.5,32.3-27.9,51.8-18.8
			l376.7,176.4c19.5,9.1,27.9,32.3,18.8,51.8C1141.4,1417.7,1127.4,1426,1112.7,1426z"/>
	</g>
	<g>
		<path d="M499.6,985.2c-5.4,0-10.9-1.1-16.2-3.5l-147.8-67.5c-11.4-4.1-23.3-6.1-35.5-6.1c-19.4,0-28.8,7.6-40.8,17.2l-1.9,1.5
			c-16.8,13.4-41.3,10.7-54.8-6.1s-10.7-41.3,6.1-54.8l1.7-1.4c16-12.9,42.8-34.4,89.7-34.4c22,0,43.5,3.9,64,11.5l2.6,1.1
			l149.2,68.2c19.6,8.9,28.2,32.1,19.2,51.6C528.5,976.8,514.4,985.2,499.6,985.2z"/>
	</g>
	<g>
		<path d="M977.1,985.2c-14.8,0-28.9-8.5-35.5-22.8c-8.9-19.6-0.3-42.7,19.2-51.6l151.7-69.2c20.5-7.6,42-11.5,64-11.5
			c46.9,0,73.7,21.6,89.7,34.4l1.7,1.4c16.8,13.4,19.5,38,6.1,54.8c-13.4,16.8-38,19.5-54.8,6.1l-1.9-1.5
			c-12-9.6-21.4-17.2-40.8-17.2c-12.2,0-24.2,2.1-35.5,6.1l-147.8,67.5C988,984.1,982.5,985.2,977.1,985.2z"/>
	</g>
</g>
</svg>
